# xmcd
#
# Track frame offsets:
#	150
#	26024
#	53891
#	84293
#	94151
#	108124
#	122480
#	135120
#	146295
#	157051
#	169186
#	183361
#	196472
#	210401
#	224166
#	243407
#	253492
#	264541
#	275510
#	288523
#
# Disc length: 4007 seconds
#
# Revision: 1
# Processed by: cddbd v1.5.1PL2 Copyright (c) Steve Scherf et al.
# Submitted via: EasyCDDAExtractor 8.2.3.1
#
DISCID=280fa514
DTITLE=Ray Charles - Disque d'or
DYEAR=2005
DGENRE=Blues
TTITLE0=What'd I say
TTITLE1=I got a Woman
TTITLE2=Georgia on my mind
TTITLE3=I'm moving on
TTITLE4=This love of mine
TTITLE5=Blues is my middle name
TTITLE6=Heart Breaker
TTITLE7=Sentimental Blues
TTITLE8=Sitting on top of the World
TTITLE9=Tell me how do you feel
TTITLE10=Kiss me Baby
TTITLE11=Baby won't you please come Home
TTITLE12=I'm going down to the River
TTITLE13=Late in the Evening Blues
TTITLE14=Talkin' about you
TTITLE15=Ain't that fine
TTITLE16=She's on the Ball
TTITLE17=You be my baby
TTITLE18=Don't put all your Dreams in one Basket
TTITLE19=Con't you see Darlin'
EXTD=Sun Records 2005
EXTT0=
EXTT1=
EXTT2=
EXTT3=
EXTT4=
EXTT5=
EXTT6=
EXTT7=
EXTT8=
EXTT9=
EXTT10=
EXTT11=
EXTT12=
EXTT13=
EXTT14=
EXTT15=
EXTT16=
EXTT17=
EXTT18=
EXTT19=
PLAYORDER=
